<mxfile host="app.diagrams.net" modified="2022-05-01T16:52:50.546Z" agent="5.0 (Windows NT 10.0; Win64; x64) AppleWebKit/537.36 (KHTML, like Gecko) Chrome/101.0.4951.41 Safari/537.36 Edg/101.0.1210.32" etag="e8nGXy5dgSs4Dq4NpOiR" version="17.5.0" type="github">
  <diagram id="2QrT2CxuCODaqadxCy0M" name="Page-1">
    <mxGraphModel dx="1180" dy="815" grid="1" gridSize="10" guides="1" tooltips="1" connect="1" arrows="1" fold="1" page="1" pageScale="1" pageWidth="827" pageHeight="1169" math="0" shadow="0">
      <root>
        <mxCell id="0" />
        <mxCell id="1" parent="0" />
        <mxCell id="bwI0bddc9rIdZFETt4Zj-5" value="&lt;font style=&quot;font-size: 15px&quot;&gt;Carteira&lt;/font&gt;" style="rounded=1;whiteSpace=wrap;html=1;labelBackgroundColor=none;labelBorderColor=none;dashed=1;" parent="1" vertex="1">
          <mxGeometry x="40" y="120" width="120" height="60" as="geometry" />
        </mxCell>
        <mxCell id="bwI0bddc9rIdZFETt4Zj-6" value="&lt;font style=&quot;font-size: 15px&quot;&gt;Fundos&lt;/font&gt;" style="rounded=1;whiteSpace=wrap;html=1;labelBackgroundColor=none;labelBorderColor=none;dashed=1;" parent="1" vertex="1">
          <mxGeometry x="280" y="120" width="120" height="60" as="geometry" />
        </mxCell>
      </root>
    </mxGraphModel>
  </diagram>
</mxfile>
